<svg width="1246" height="106" viewBox="0 0 1246 106" fill="none" xmlns="http://www.w3.org/2000/svg">
<path d="M56.456 14.8L66.392 30.496L19.664 57.784L66.392 84.568L56.096 100.768L0.00800097 65.92V49.792L56.456 14.8ZM103.488 89.392C103.488 86.464 104.208 83.8 105.648 81.4C107.088 78.952 109.032 77.008 111.48 75.568C113.928 74.08 116.616 73.336 119.544 73.336C122.52 73.336 125.208 74.08 127.608 75.568C130.056 77.008 132 78.952 133.44 81.4C134.88 83.8 135.6 86.464 135.6 89.392C135.6 92.272 134.88 94.936 133.44 97.384C132 99.832 130.056 101.776 127.608 103.216C125.208 104.704 122.52 105.448 119.544 105.448C116.616 105.448 113.928 104.704 111.48 103.216C109.032 101.776 107.088 99.832 105.648 97.384C104.208 94.936 103.488 92.272 103.488 89.392ZM269.119 14.8L325.423 49.648V65.92L269.335 100.768L259.039 85.288L305.839 57.784L259.039 31.144L269.119 14.8ZM442.743 103C438.711 103 436.695 100.984 436.695 96.952V11.416C436.695 7.384 438.711 5.368 442.743 5.368H476.439C485.223 5.368 491.943 7.72 496.599 12.424C501.303 17.08 503.655 23.8 503.655 32.584V36.904C503.655 45.688 501.303 52.432 496.599 57.136C491.943 61.792 485.223 64.12 476.439 64.12H448.791V96.952C448.791 100.984 446.775 103 442.743 103ZM448.791 52.024H476.439C481.911 52.024 485.799 50.872 488.103 48.568C490.407 46.264 491.559 42.376 491.559 36.904V32.584C491.559 27.16 490.407 23.296 488.103 20.992C485.799 18.64 481.911 17.464 476.439 17.464H448.791V52.024ZM546.963 103C537.411 103 530.307 100.696 525.651 96.088C521.043 91.48 518.739 84.424 518.739 74.92V58.216C518.739 48.568 521.043 41.464 525.651 36.904C530.307 32.296 537.411 29.992 546.963 29.992H558.771C568.371 29.992 575.475 32.296 580.083 36.904C584.691 41.512 586.995 48.616 586.995 58.216V74.776C586.995 84.328 584.691 91.432 580.083 96.088C575.475 100.696 568.371 103 558.771 103H546.963ZM530.835 74.92C530.835 81.112 531.963 85.336 534.219 87.592C536.475 89.8 540.723 90.904 546.963 90.904H558.771C565.059 90.904 569.307 89.776 571.515 87.52C573.771 85.264 574.899 81.016 574.899 74.776V58.216C574.899 51.928 573.771 47.68 571.515 45.472C569.307 43.216 565.059 42.088 558.771 42.088H546.963C542.787 42.088 539.523 42.568 537.171 43.528C534.867 44.44 533.235 46.072 532.275 48.424C531.315 50.728 530.835 53.992 530.835 58.216V74.92ZM619.508 103C615.476 103 613.46 100.984 613.46 96.952V36.04C613.46 32.008 615.476 29.992 619.508 29.992C623.54 29.992 625.556 32.008 625.556 36.04V96.952C625.556 100.984 623.54 103 619.508 103ZM617.492 18.184C612.932 18.184 610.652 15.88 610.652 11.272V7.024C610.652 2.512 612.932 0.255997 617.492 0.255997H621.668C626.036 0.255997 628.22 2.512 628.22 7.024V11.272C628.22 15.88 626.036 18.184 621.668 18.184H617.492ZM661.555 103C657.523 103 655.507 100.984 655.507 96.952V36.04C655.507 32.008 657.523 29.992 661.555 29.992C665.587 29.992 667.603 32.008 667.603 36.04V38.416C672.691 32.8 680.179 29.992 690.067 29.992H694.099C703.699 29.992 710.803 32.296 715.411 36.904C720.019 41.512 722.323 48.616 722.323 58.216V96.952C722.323 100.984 720.307 103 716.275 103C712.243 103 710.227 100.984 710.227 96.952V58.216C710.227 51.928 709.075 47.68 706.771 45.472C704.515 43.216 700.291 42.088 694.099 42.088H690.067C684.307 42.088 679.291 42.76 675.019 44.104C670.747 45.4 668.275 47.464 667.603 50.296V96.952C667.603 100.984 665.587 103 661.555 103ZM781.667 103C772.163 103 765.155 100.744 760.643 96.232C756.131 91.72 753.875 84.76 753.875 75.352V42.088H746.819C742.787 42.088 740.771 40.072 740.771 36.04C740.771 32.008 742.787 29.992 746.819 29.992H753.875V19.48C753.875 15.448 755.891 13.432 759.923 13.432C763.955 13.432 765.971 15.448 765.971 19.48V29.992H782.531C786.563 29.992 788.579 32.008 788.579 36.04C788.579 40.072 786.563 42.088 782.531 42.088H765.971V75.352C765.971 81.448 767.075 85.576 769.283 87.736C771.491 89.848 775.619 90.904 781.667 90.904C783.539 90.904 785.003 91.384 786.059 92.344C787.163 93.304 787.715 94.84 787.715 96.952C787.715 100.984 785.699 103 781.667 103Z" fill="#00C853"/>
<path d="M862.508 103C858.476 103 856.46 100.984 856.46 96.952V11.416C856.46 7.384 858.476 5.368 862.508 5.368H900.092C907.724 5.368 913.58 7.384 917.66 11.416C921.788 15.448 923.852 21.208 923.852 28.696V32.584C923.852 39.064 921.812 44.08 917.732 47.632C925.364 51.904 929.18 59.704 929.18 71.032V75.928C929.18 84.76 926.828 91.48 922.124 96.088C917.468 100.696 910.748 103 901.964 103H862.508ZM868.556 90.904H901.964C907.388 90.904 911.252 89.752 913.556 87.448C915.908 85.096 917.084 81.256 917.084 75.928V71.032C917.084 65.704 915.956 61.912 913.7 59.656C911.444 57.352 907.532 56.2 901.964 56.2H868.556V90.904ZM868.556 44.104H902.684C906.188 44.104 908.564 43.024 909.812 40.864C911.108 38.704 911.756 35.944 911.756 32.584V28.696C911.756 24.52 910.892 21.616 909.164 19.984C907.436 18.304 904.412 17.464 900.092 17.464H868.556V44.104ZM975.095 103C967.751 103 962.279 101.2 958.679 97.6C955.127 93.952 953.351 88.456 953.351 81.112V7.67199C953.351 3.63999 955.367 1.62399 959.399 1.62399C963.431 1.62399 965.447 3.63999 965.447 7.67199V81.112C965.447 85 966.071 87.616 967.319 88.96C968.615 90.256 971.207 90.904 975.095 90.904C979.223 90.904 981.287 92.92 981.287 96.952C981.431 100.984 979.367 103 975.095 103ZM1022.36 103C1014.3 103 1008.3 101.032 1004.36 97.096C1000.43 93.16 998.458 87.16 998.458 79.096C998.458 71.032 1000.4 65.032 1004.29 61.096C1008.23 57.16 1014.25 55.192 1022.36 55.192H1052.82C1052.53 50.152 1051.21 46.72 1048.86 44.896C1046.51 43.024 1042.47 42.088 1036.76 42.088H1028.41C1023.61 42.088 1020.03 42.424 1017.68 43.096C1015.33 43.72 1013.67 44.872 1012.71 46.552C1011.85 48.568 1010.96 49.96 1010.05 50.728C1009.14 51.496 1007.77 51.88 1005.95 51.88C1003.93 51.88 1002.35 51.328 1001.19 50.224C1000.04 49.072 999.706 47.56 1000.19 45.688C1001.63 40.264 1004.63 36.304 1009.19 33.808C1013.79 31.264 1020.2 29.992 1028.41 29.992H1036.76C1046.36 29.992 1053.47 32.296 1058.07 36.904C1062.68 41.512 1064.99 48.616 1064.99 58.216V96.952C1064.99 100.984 1062.97 103 1058.94 103C1054.91 103 1052.89 100.984 1052.89 96.952V93.712C1047.75 99.904 1040.27 103 1030.43 103H1022.36ZM1022.36 90.904H1030.43C1033.98 90.904 1037.31 90.592 1040.43 89.968C1043.55 89.296 1046.22 88.096 1048.43 86.368C1050.68 84.64 1052.17 82.168 1052.89 78.952V67.288H1022.36C1017.61 67.288 1014.44 68.08 1012.86 69.664C1011.32 71.248 1010.55 74.392 1010.55 79.096C1010.55 83.848 1011.32 87.016 1012.86 88.6C1014.44 90.136 1017.61 90.904 1022.36 90.904ZM1099.6 103C1095.57 103 1093.55 100.984 1093.55 96.952V36.04C1093.55 32.008 1095.57 29.992 1099.6 29.992C1103.63 29.992 1105.65 32.008 1105.65 36.04V38.416C1110.74 32.8 1118.23 29.992 1128.11 29.992H1132.15C1141.75 29.992 1148.85 32.296 1153.46 36.904C1158.07 41.512 1160.37 48.616 1160.37 58.216V96.952C1160.37 100.984 1158.35 103 1154.32 103C1150.29 103 1148.27 100.984 1148.27 96.952V58.216C1148.27 51.928 1147.12 47.68 1144.82 45.472C1142.56 43.216 1138.34 42.088 1132.15 42.088H1128.11C1122.35 42.088 1117.34 42.76 1113.07 44.104C1108.79 45.4 1106.32 47.464 1105.65 50.296V96.952C1105.65 100.984 1103.63 103 1099.6 103ZM1194.95 103C1190.91 103 1188.9 100.984 1188.9 96.952V7.67199C1188.9 3.63999 1190.91 1.62399 1194.95 1.62399C1198.98 1.62399 1200.99 3.63999 1200.99 7.67199V61.744L1235.27 32.296C1238.34 29.656 1241.17 29.848 1243.76 32.872C1246.4 35.944 1246.21 38.776 1243.19 41.368L1216.91 64.048L1242.03 92.632C1244.72 95.752 1244.58 98.584 1241.6 101.128C1238.53 103.768 1235.65 103.576 1232.96 100.552L1207.69 72.04L1200.99 77.8V96.952C1200.99 100.984 1198.98 103 1194.95 103Z" fill="#EDEDED"/>
</svg>
